<svg xmlns="http://www.w3.org/2000/svg" version="1.1" xmlns:xlink="http://www.w3.org/1999/xlink" xmlns:svgjs="http://svgjs.com/svgjs" width="512" height="512" x="0" y="0" viewBox="0 0 512 512" style="enable-background:new 0 0 512 512" xml:space="preserve" class=""><g><linearGradient id="SVGID_1_" gradientTransform="matrix(1 0 0 -1 0 514)" gradientUnits="userSpaceOnUse" x1="256" x2="256" y1="18" y2="498"><stop stop-opacity="1" stop-color="#fc00ff" offset="0"></stop><stop stop-opacity="1" stop-color="#00dbde" offset="1"></stop></linearGradient><g><g><g><path d="m305.394 206.607c2.928 2.928 6.767 4.393 10.606 4.393s7.678-1.465 10.606-4.393l30-30c5.858-5.858 5.858-15.355 0-21.213l-30-30c-5.857-5.857-15.355-5.857-21.213 0-5.858 5.858-5.858 15.355 0 21.213l19.394 19.393-19.393 19.393c-5.859 5.858-5.859 15.356 0 21.214zm-60.532 3.945c1.221.305 2.444.451 3.649.451 6.721 0 12.837-4.55 14.54-11.366l15-60c2.01-8.037-2.877-16.181-10.914-18.19-8.028-2.007-16.181 2.877-18.189 10.914l-15 60c-2.009 8.038 2.877 16.182 10.914 18.191zm-59.468-3.945c2.928 2.928 6.767 4.393 10.606 4.393s7.678-1.465 10.606-4.393c5.858-5.858 5.858-15.355 0-21.213l-19.393-19.394 19.393-19.393c5.858-5.858 5.858-15.355 0-21.213-5.857-5.857-15.355-5.857-21.213 0l-30 30c-5.858 5.858-5.858 15.355 0 21.213zm326.606 49.367c-.01-5.438-2.962-10.445-7.716-13.086l-57.16-31.756 57.207-32.045c4.736-2.653 7.669-7.658 7.669-13.087s-2.933-10.434-7.669-13.087l-241-135c-4.555-2.551-10.107-2.551-14.662 0l-241 135c-4.736 2.653-7.669 7.658-7.669 13.087s2.933 10.434 7.669 13.087l57.207 32.045-57.16 31.756c-4.754 2.641-7.706 7.648-7.716 13.086s2.925 10.455 7.669 13.113l57.207 32.045-57.16 31.756c-4.754 2.641-7.706 7.648-7.716 13.086s2.925 10.455 7.669 13.113l241 135c2.277 1.276 4.805 1.913 7.331 1.913s5.054-.638 7.331-1.913l241-135c4.744-2.658 7.679-7.675 7.669-13.113s-2.962-10.445-7.716-13.086l-57.16-31.756 57.207-32.045c4.744-2.658 7.679-7.675 7.669-13.113zm-256 27.833-210.307-117.807 210.307-117.807 210.307 117.807zm210.211 62.247-210.211 117.753-210.211-117.753 49.846-27.692 153.034 85.725c2.277 1.276 4.805 1.913 7.331 1.913s5.054-.638 7.331-1.913l153.034-85.725zm-420.423-90 49.846-27.692 153.034 85.725c2.277 1.276 4.805 1.913 7.331 1.913s5.054-.638 7.331-1.913l153.034-85.725 49.846 27.692-210.21 117.753z" fill="url(#SVGID_1_)" data-original="url(#SVGID_1_)"></path></g></g></g></g></svg>