<svg xmlns="http://www.w3.org/2000/svg" version="1.1" xmlns:xlink="http://www.w3.org/1999/xlink" xmlns:svgjs="http://svgjs.com/svgjs" width="512" height="512" x="0" y="0" viewBox="0 0 512 512" style="enable-background:new 0 0 512 512" xml:space="preserve" class=""><g><linearGradient id="SVGID_1_" gradientUnits="userSpaceOnUse" x1="255.95" x2="255.95" y1="55.8" y2="456.2"><stop stop-opacity="1" stop-color="#fc00ff" offset="0"></stop><stop stop-opacity="1" stop-color="#00dbde" offset="1"></stop></linearGradient><path d="m454.6 101.2h-332.4v291.4c0 6.9-5.6 12.5-12.5 12.5h-36.6v.1c-12.4 0-22.4 10.1-22.4 22.4 0 15.8 12.8 28.6 28.6 28.6h375.3c3.7 0 6.6-3 6.6-6.6v-341.8c0-3.7-3-6.6-6.6-6.6zm-82.4 156.4h14.2c2.7 0 4.9 2.2 4.9 4.9v11.3h13.5c2.1-8.9 10.2-15.5 19.7-15.5 11.2 0 20.3 9.1 20.3 20.3s-9.2 20.3-20.3 20.3c-9.5 0-17.5-6.5-19.7-15.3h-13.5v12.4c0 2.7-2.2 4.9-4.9 4.9h-14.2c-1.9 7.4-4.8 14.5-8.6 21.1l7.6 7.7h40.3c9.8 0 17.8 8 17.8 17.8v13c8.9 2.1 15.5 10.1 15.5 19.7 0 11.2-9.2 20.3-20.3 20.3-11.2 0-20.3-9.1-20.3-20.3 0-9.5 6.6-17.5 15.4-19.7v-12.9c0-4.5-3.6-8.1-8.1-8.1h-38l-22.9 23.3c-.9.9-2.2 1.5-3.5 1.5s-2.6-.5-3.5-1.5l-10.1-10.2c-6.5 3.8-13.4 6.7-20.6 8.7v14.6c0 2.6-2.2 4.8-4.9 4.8h-32.7c-2.7 0-4.9-2.2-4.9-4.9v-14.6c-7.2-1.9-14.1-4.8-20.6-8.7l-10.1 10.2c-.9.9-2.2 1.5-3.5 1.5s-2.6-.5-3.5-1.5l-22.7-23.1h-38.2c-4.4 0-8.1 3.6-8.1 8.1v12.8c8.9 2.1 15.5 10.1 15.5 19.7 0 11.2-9.1 20.3-20.3 20.3s-20.3-9.1-20.3-20.3c0-9.5 6.6-17.5 15.4-19.7v-12.9c0-9.8 8-17.8 17.8-17.8h40.1l7.8-7.9c-3.8-6.6-6.7-13.7-8.6-21.1h-14.2c-2.7 0-4.9-2.2-4.9-4.9v-12.3h-13.4c-2.3 8.8-10.2 15.3-19.7 15.3-11.2 0-20.3-9.1-20.3-20.3s9.1-20.3 20.3-20.3c9.5 0 17.5 6.6 19.7 15.5h13.4v-11.3c0-2.7 2.2-4.9 4.9-4.9h14.2c1.9-7.4 4.8-14.5 8.6-21.1l-8.8-8.9h-39c-9.8 0-17.8-8-17.8-17.8v-13c-8.9-2.1-15.5-10.2-15.5-19.7 0-11.2 9.1-20.3 20.3-20.3s20.3 9.1 20.3 20.3c0 9.5-6.5 17.5-15.3 19.7v13c0 4.4 3.6 8.1 8.1 8.1h38.9l21.8-22.2c.9-.9 2.2-1.5 3.5-1.5s2.6.5 3.5 1.5l10.1 10.2c6.5-3.8 13.4-6.7 20.6-8.7v-14.6c0-2.7 2.2-4.9 4.9-4.9h32.8c2.7 0 4.9 2.2 4.9 4.9v14.6c7.2 1.9 14.1 4.8 20.6 8.7l10.1-10.2c.9-.9 2.2-1.5 3.5-1.5s2.6.5 3.5 1.5l21.7 22.1h39.2c4.4 0 8.1-3.6 8.1-8.1v-12.9c-8.8-2.2-15.4-10.2-15.4-19.7 0-11.2 9.1-20.3 20.3-20.3s20.3 9.1 20.3 20.3c0 9.5-6.7 17.5-15.5 19.7v12.9c-.1 9.9-8.1 17.9-17.9 17.9h-39.1l-8.8 8.9c3.8 6.6 6.7 13.7 8.6 21.1zm52.3 10.6c5.8 0 10.5 4.7 10.5 10.5s-4.7 10.5-10.5 10.5-10.5-4.7-10.5-10.5 4.7-10.5 10.5-10.5zm.1-80.6c.3 0 .5 0 .8.1 5.4-.4 9.6-5 9.6-10.5 0-5.8-4.8-10.5-10.4-10.5-5.8 0-10.5 4.7-10.5 10.5 0 5.6 4.3 10.1 9.7 10.5.3-.1.5-.1.8-.1zm-10.5 192.6c0 5.8 4.7 10.5 10.5 10.5s10.4-4.7 10.4-10.5-4.8-10.5-10.4-10.5c-5.8 0-10.5 4.7-10.5 10.5zm-60.8-141.7c-1.2-1.9-1-4.4.6-6.1l9.5-9.6-16.3-16.6-9.3 9.5c-1.6 1.7-4.2 1.9-6.2.7-7.5-5-15.8-8.5-24.6-10.4-2.2-.5-3.9-2.5-3.9-4.8v-13.5h-23v13.5c0 2.3-1.6 4.3-3.9 4.8-8.8 1.9-17 5.4-24.6 10.4-2 1.3-4.5 1-6.2-.7l-9.3-9.5-16.2 16.7 9.5 9.6c1.6 1.6 1.9 4.1.6 6.1-4.9 7.7-8.3 16.1-10.2 25.1-.5 2.3-2.5 3.9-4.8 3.9h-13.2v11.1 12.5h13.2c2.3 0 4.3 1.6 4.8 3.9 1.9 8.9 5.3 17.4 10.2 25.1 1.2 1.9 1 4.4-.6 6.1l-9.5 9.6 16.3 16.6 9.3-9.5c1.6-1.7 4.2-1.9 6.2-.7 7.5 5 15.8 8.5 24.6 10.4 2.2.5 3.9 2.5 3.9 4.8v13.4h22.9v-13.5c0-2.3 1.6-4.3 3.9-4.8 8.8-1.9 17-5.4 24.6-10.4 1.9-1.3 4.5-1 6.2.7l9.3 9.5 16.3-16.6-9.5-9.6c-1.6-1.6-1.9-4.1-.6-6.1 4.9-7.7 8.3-16.1 10.2-25.1.5-2.3 2.5-3.9 4.8-3.9h13.2v-12.4-11.2h-13.2c-2.3 0-4.3-1.6-4.8-3.9-1.9-8.9-5.3-17.4-10.2-25.1zm-61.7 98.8c-31.4 0-57-26-57-57.9s25.6-57.9 57-57.9 57 26 57 57.9-25.5 57.9-57 57.9zm0-106.1c-26.1 0-47.3 21.6-47.3 48.2s21.2 48.2 47.3 48.2 47.3-21.6 47.3-48.2-21.2-48.2-47.3-48.2zm0 43.1c10.1 0 18.4 8.2 18.4 18.4 0 8.5-5.7 15.6-13.5 17.7v4.1c0 2.7-2.2 4.9-4.9 4.9s-4.9-2.2-4.9-4.9v-4.1c-7.7-2.1-13.5-9.2-13.5-17.7 0-2.7 2.2-4.9 4.9-4.9s4.9 2.2 4.9 4.9c0 4.7 3.8 8.6 8.6 8.6s8.6-3.8 8.6-8.6-3.8-8.6-8.6-8.6c-10.1 0-18.4-8.2-18.4-18.4 0-8.4 5.7-15.6 13.5-17.7v-4c0-2.7 2.2-4.9 4.9-4.9s4.9 2.2 4.9 4.9v4c7.8 2.1 13.5 9.2 13.5 17.7 0 2.7-2.2 4.9-4.9 4.9-2.6 0-4.9-2.2-4.9-4.9 0-4.5-3.5-8.2-7.9-8.6-.2.1-.5.1-.7.1-.3 0-.6-.1-.8-.1-4.4.4-7.8 4.1-7.8 8.6 0 4.8 3.8 8.6 8.6 8.6zm-122.2-97.1c0-5.8-4.7-10.5-10.5-10.5s-10.5 4.7-10.5 10.5 4.7 10.5 10.5 10.5h.1c5.7-.1 10.4-4.7 10.4-10.5zm-10.5 91c5.8 0 10.5 4.7 10.5 10.5s-4.7 10.5-10.5 10.5-10.5-4.7-10.5-10.5 4.7-10.5 10.5-10.5zm0 101.5c5.8 0 10.5 4.7 10.5 10.5s-4.7 10.5-10.5 10.5-10.5-4.7-10.5-10.5 4.7-10.5 10.5-10.5zm-49.3 25.7c1.5 0 2.8-1.2 2.8-2.8v-336.8h-17.7c-24.2 0-43.9 24.3-43.9 54.2v294.5c5.8-5.6 13.7-9.1 22.4-9.1z" fill="url(#SVGID_1_)" data-original="url(#SVGID_1_)"></path></g></svg>