<svg width="91" height="42" viewBox="0 0 91 42" fill="none" xmlns="http://www.w3.org/2000/svg">
<path fill-rule="evenodd" clip-rule="evenodd" d="M36.9778 34.4324L30.095 36.899C32.533 36.4798 34.8231 35.6352 36.9778 34.4324M52.9494 33.2428C50.2156 33.8819 47.53 34.6084 44.7585 34.9381C47.6629 35.1767 50.3374 34.2916 52.9494 33.2428M46.1689 24.8093C46.1834 23.7286 45.4859 23.864 44.8459 23.9564C42.6817 24.2675 41.5692 25.9355 40.5209 27.5405C39.7567 28.7102 39.1097 30.0224 39.0919 31.4998C39.0848 32.0632 39.2348 32.5109 39.9638 32.1087C41.954 31.0103 43.7433 29.6753 45.0344 27.7696C45.6495 26.8616 46.0765 25.8659 46.1689 24.8093M44.7697 33.6599C46.5301 33.7473 48.2192 33.2623 49.9054 32.834C57.1912 30.9829 63.3284 27.1056 68.8912 22.1584C72.607 18.8535 75.9711 15.2267 79.2139 11.474C79.51 11.1319 79.7958 10.774 80.2415 10.6175C80.7423 10.4419 81.096 10.482 80.8603 11.1493C80.8027 11.3138 80.5745 11.4674 80.8864 11.5631C81.9621 11.8936 81.6705 12.6773 81.4796 13.3901C81.1217 14.728 80.2262 15.7826 79.4599 16.8802C77.3135 19.9556 75.0487 22.9528 72.4102 25.6269C69.9606 28.1092 67.1788 30.2088 64.3399 32.2293C62.5327 33.5154 60.6767 34.7985 58.5494 35.3797C57.1361 35.7657 55.9946 36.6289 54.6157 37.0216C51.9723 37.7742 49.3313 38.4957 46.569 38.649C44.2955 38.7749 42.1478 38.3242 40.17 37.193C39.5181 36.8198 38.9051 36.7938 38.2432 37.0663C36.4592 37.8003 34.6462 38.4791 32.8391 39.1282C29.8991 40.1848 26.805 40.7701 23.7084 41.2323C18.7695 41.9696 13.8235 42.202 8.88334 41.2224C5.97979 40.6467 3.15452 39.8903 0.974168 37.6893C0.400085 37.1098 -0.0257141 36.4703 0.00120895 35.6091C0.0123924 35.238 0.129611 34.9572 0.492866 34.8019C0.922392 34.6188 0.960085 34.9232 1.15807 35.2016C2.51541 37.111 4.67878 37.3612 6.73446 37.7845C12.3995 38.9513 18.0359 38.417 23.6587 37.4337C27.9614 36.6811 32.1494 35.5159 36.1962 33.862C36.5176 33.7307 36.9608 33.7419 36.6932 33.1351C35.7609 31.021 35.9112 28.8593 36.67 26.7556C37.841 23.5082 39.7488 20.8756 43.2546 19.8699C45.1384 19.3294 46.3946 19.9416 47.4997 21.5466C50.3159 25.6352 48.7705 30.0377 45.5596 32.6733C45.2717 32.909 44.9843 33.1446 44.6972 33.3799C44.7213 33.4735 44.7457 33.5667 44.7697 33.6599" fill="black"/>
<path fill-rule="evenodd" clip-rule="evenodd" d="M81.0396 5.44742C83.2444 4.75322 85.3067 3.77778 87.1586 2.3902C85.1191 3.40914 83.0795 4.42849 81.0396 5.44742M85.5975 14.7119C85.6493 12.3708 86.0995 10.0794 86.4594 7.77647C86.5133 7.43227 86.7585 7.05701 86.3261 6.7563C85.9106 6.4676 85.59 6.76251 85.3088 6.94766C83.775 7.95541 82.0312 8.45659 80.3603 9.14831C79.3049 9.5857 78.3237 10.2261 77.2256 10.6423C75.5349 11.2827 73.8901 12.0506 72.2457 12.8069C71.4123 13.1901 70.4356 13.1665 69.7108 13.8967C68.9996 14.6129 68.2288 14.3971 67.3536 13.2038C66.9066 12.5949 66.7236 11.783 67.484 11.2052C68.1095 10.7301 68.7826 10.2952 69.4875 9.95186C74.1535 7.67997 78.8377 5.44576 83.5062 3.17926C84.5541 2.67062 85.5689 2.09073 86.592 1.53156C88.4522 0.514699 89.2395 0.787657 90.2336 2.67062C91.0053 4.13233 91.067 5.57499 90.548 7.13198C89.5494 10.1291 88.6361 13.1549 88.2177 16.3007C88.134 16.9311 88.139 17.5727 88.0798 18.2073C88.0119 18.9421 87.6672 19.1297 87.0364 18.6973C85.6377 17.7397 85.5196 17.417 85.5975 14.7119" fill="black"/>
</svg>
