<?xml version="1.0" standalone="no"?><svg xmlns="http://www.w3.org/2000/svg" viewBox="0 0 1440 320"><path fill="#491bd5" fill-opacity="10" d="M0,32L26.7,69.3C53.3,107,107,181,160,213.3C213.3,245,267,235,320,218.7C373.3,203,427,181,480,149.3C533.3,117,587,75,640,96C693.3,117,747,203,800,213.3C853.3,224,907,160,960,122.7C1013.3,85,1067,75,1120,106.7C1173.3,139,1227,213,1280,208C1333.3,203,1387,117,1413,74.7L1440,32L1440,320L1413.3,320C1386.7,320,1333,320,1280,320C1226.7,320,1173,320,1120,320C1066.7,320,1013,320,960,320C906.7,320,853,320,800,320C746.7,320,693,320,640,320C586.7,320,533,320,480,320C426.7,320,373,320,320,320C266.7,320,213,320,160,320C106.7,320,53,320,27,320L0,320Z"></path></svg>